<svg xmlns="http://www.w3.org/2000/svg" width="900" height="520" viewBox="0 0 900 520">
  <rect x="0" y="0" width="900" height="520" fill="#ffffff"/>
  <rect x="80" y="40" width="640" height="360" fill="#fbfdff" stroke="#c7d2e0" stroke-width="1"/>

  <g stroke="#e6edf5" stroke-width="1">
    <line x1="80" y1="400" x2="720" y2="400"/>
    <line x1="80" y1="340" x2="720" y2="340"/>
    <line x1="80" y1="280" x2="720" y2="280"/>
    <line x1="80" y1="220" x2="720" y2="220"/>
    <line x1="80" y1="160" x2="720" y2="160"/>
    <line x1="80" y1="100" x2="720" y2="100"/>
    <line x1="80" y1="40" x2="720" y2="40"/>

    <line x1="80" y1="40" x2="80" y2="400"/>
    <line x1="183.23" y1="40" x2="183.23" y2="400"/>
    <line x1="286.45" y1="40" x2="286.45" y2="400"/>
    <line x1="389.68" y1="40" x2="389.68" y2="400"/>
    <line x1="492.90" y1="40" x2="492.90" y2="400"/>
    <line x1="596.13" y1="40" x2="596.13" y2="400"/>
    <line x1="699.35" y1="40" x2="699.35" y2="400"/>
    <line x1="720" y1="40" x2="720" y2="400"/>
  </g>

  <g stroke="#1f2a44" stroke-width="1.6">
    <line x1="80" y1="400" x2="735" y2="400"/>
    <line x1="80" y1="415" x2="80" y2="40"/>
  </g>

  <g fill="#374151" font-size="15" font-family="DejaVu Sans, Noto Sans CJK SC, sans-serif">
    <text x="72" y="405" text-anchor="end">0</text>
    <text x="72" y="345" text-anchor="end">3</text>
    <text x="72" y="285" text-anchor="end">6</text>
    <text x="72" y="225" text-anchor="end">9</text>
    <text x="72" y="165" text-anchor="end">12</text>
    <text x="72" y="105" text-anchor="end">15</text>
    <text x="72" y="45" text-anchor="end">18</text>

    <text x="80" y="424" text-anchor="middle">0</text>
    <text x="183.23" y="424" text-anchor="middle">50</text>
    <text x="286.45" y="424" text-anchor="middle">100</text>
    <text x="389.68" y="424" text-anchor="middle">150</text>
    <text x="492.90" y="424" text-anchor="middle">200</text>
    <text x="596.13" y="424" text-anchor="middle">250</text>
    <text x="699.35" y="424" text-anchor="middle">300</text>
  </g>

  <text x="32" y="220" transform="rotate(-90 32,220)" fill="#111827" font-size="18" font-family="DejaVu Sans, Noto Sans CJK SC, sans-serif">Torque T (N·m)</text>
  <text x="400" y="465" text-anchor="middle" fill="#111827" font-size="18" font-family="DejaVu Sans, Noto Sans CJK SC, sans-serif">Speed n (rpm)</text>

  <line x1="275.43" y1="40" x2="275.43" y2="400" stroke="#ef4444" stroke-width="1.6" stroke-dasharray="6 5"/>
  <text x="282" y="62" fill="#ef4444" font-size="14" font-family="DejaVu Sans, Noto Sans CJK SC, sans-serif">n_peak ≈ 94.62 rpm</text>

  <polyline points="80.00,66.80 82.06,66.80 84.13,66.80 86.19,66.80 88.26,66.80 90.32,66.80 92.39,66.80 94.45,66.80 96.52,66.80 98.58,66.80 100.65,66.80 102.71,66.80 104.77,66.80 106.84,66.80 108.90,66.80 110.97,66.80 113.03,66.80 115.10,66.80 117.16,66.80 119.23,66.80 121.29,66.80 123.35,66.80 125.42,66.80 127.48,66.80 129.55,66.80 131.61,66.80 133.68,66.80 135.74,66.80 137.81,66.80 139.87,66.80 141.94,66.80 144.00,66.80 146.06,66.80 148.13,66.80 150.19,66.80 152.26,66.80 154.32,66.80 156.39,66.80 158.45,66.80 160.52,66.80 162.58,66.80 164.65,66.80 166.71,66.80 168.77,66.80 170.84,66.80 172.90,66.80 174.97,66.80 177.03,66.80 179.10,66.80 181.16,66.80 183.23,66.80 185.29,66.80 187.35,66.80 189.42,66.80 191.48,66.80 193.55,66.80 195.61,66.80 197.68,66.80 199.74,66.80 201.81,66.80 203.87,66.80 205.94,66.80 208.00,66.80 210.06,66.80 212.13,66.80 214.19,66.80 216.26,66.80 218.32,66.80 220.39,66.80 222.45,66.80 224.52,66.80 226.58,66.80 228.65,66.80 230.71,66.80 232.77,66.80 234.84,66.80 236.90,66.80 238.97,66.80 241.03,66.80 243.10,66.80 245.16,66.80 247.23,66.80 249.29,66.80 251.35,66.80 253.42,66.80 255.48,66.80 257.55,66.80 259.61,66.80 261.68,66.80 263.74,66.80 265.81,66.80 267.87,66.80 269.94,66.80 272.00,66.80 274.06,66.80 276.13,66.80 278.19,66.82 280.26,66.84 282.32,66.88 284.39,66.93 286.45,67.00 288.52,67.08 290.58,67.17 292.65,67.28 294.71,67.40 296.77,67.54 298.84,67.69 300.90,67.85 302.97,68.02 305.03,68.21 307.10,68.42 309.16,68.63 311.23,68.86 313.29,69.11 315.35,69.37 317.42,69.64 319.48,69.92 321.55,70.22 323.61,70.53 325.68,70.86 327.74,71.20 329.81,71.55 331.87,71.92 333.94,72.30 336.00,72.69 338.06,73.10 340.13,73.52 342.19,73.96 344.26,74.41 346.32,74.87 348.39,75.34 350.45,75.83 352.52,76.34 354.58,76.85 356.65,77.39 358.71,77.93 360.77,78.49 362.84,79.06 364.90,79.64 366.97,80.24 369.03,80.86 371.10,81.48 373.16,82.12 375.23,82.78 377.29,83.44 379.35,84.12 381.42,84.82 383.48,85.53 385.55,86.25 387.61,86.98 389.68,87.73 391.74,88.49 393.81,89.27 395.87,90.06 397.94,90.86 400.00,91.68 402.06,92.51 404.13,93.36 406.19,94.22 408.26,95.09 410.32,95.97 412.39,96.87 414.45,97.78 416.52,98.71 418.58,99.65 420.65,100.60 422.71,101.57 424.77,102.55 426.84,103.55 428.90,104.56 430.97,105.58 433.03,106.61 435.10,107.66 437.16,108.73 439.23,109.80 441.29,110.89 443.35,112.00 445.42,113.11 447.48,114.24 449.55,115.39 451.61,116.55 453.68,117.72 455.74,118.91 457.81,120.11 459.87,121.32 461.94,122.54 464.00,123.79 466.06,125.04 468.13,126.31 470.19,127.59 472.26,128.88 474.32,130.19 476.39,131.51 478.45,132.85 480.52,134.20 482.58,135.56 484.65,136.94 486.71,138.33 488.77,139.73 490.84,141.15 492.90,142.58 494.97,144.03 497.03,145.49 499.10,146.96 501.16,148.44 503.23,149.94 505.29,151.46 507.35,152.98 509.42,154.53 511.48,156.08 513.55,157.65 515.61,159.23 517.68,160.82 519.74,162.43 521.81,164.06 523.87,165.69 525.94,167.34 528.00,169.00 530.06,170.68 532.13,172.37 534.19,174.08 536.26,175.79 538.32,177.53 540.39,179.27 542.45,181.03 544.52,182.80 546.58,184.59 548.65,186.39 550.71,188.20 552.77,190.03 554.84,191.87 556.90,193.72 558.97,195.59 561.03,197.47 563.10,199.37 565.16,201.28 567.23,203.20 569.29,205.14 571.35,207.09 573.42,209.05 575.48,211.03 577.55,213.02 579.61,215.02 581.68,217.04 583.74,219.07 585.81,221.12 587.87,223.18 589.94,225.25 592.00,227.34 594.06,229.44 596.13,231.55 598.19,233.68 600.26,235.82 602.32,237.98 604.39,240.14 606.45,242.33 608.52,244.52 610.58,246.73 612.65,248.95 614.71,251.19 616.77,253.44 618.84,255.70 620.90,257.98 622.97,260.27 625.03,262.58 627.10,264.90 629.16,267.23 631.23,269.57 633.29,271.93 635.35,274.31 637.42,276.69 639.48,279.09 641.55,281.51 643.61,283.94 645.68,286.38 647.74,288.83 649.81,291.30 651.87,293.78 653.94,296.28 656.00,298.79 658.06,301.31 660.13,303.85 662.19,306.40 664.26,308.96 666.32,311.54 668.39,314.13 670.45,316.74 672.52,319.36 674.58,321.99 676.65,324.63 678.71,327.29 680.77,329.97 682.84,332.65 684.90,335.36 686.97,338.07 689.03,340.80 691.10,343.54 693.16,346.29 695.23,349.06 697.29,351.85 699.35,354.64 701.42,357.45 703.48,360.27 705.55,363.11 707.61,365.96 709.68,368.83 711.74,371.71 713.81,374.60 715.87,377.50 717.94,380.42 720.00,383.35 " fill="none" stroke="#0f766e" stroke-width="3" stroke-linecap="round" stroke-linejoin="round"/>

  <circle cx="275.43" cy="66.80" r="4.2" fill="#0f766e"/>
  <text x="286" y="84" fill="#0f766e" font-size="14" font-family="DejaVu Sans, Noto Sans CJK SC, sans-serif">T_peak ≈ 16.6599 N·m</text>

  <text x="80" y="28" fill="#111827" font-size="20" font-family="DejaVu Sans, Noto Sans CJK SC, sans-serif">Torque-Speed Envelope (Piecewise)</text>
</svg>
